<?xml version="1.0" encoding="UTF-8"?>
<svg enable-background="new" viewBox="0 0 408.71085 398.10458" xmlns="http://www.w3.org/2000/svg" xmlns:xlink="http://www.w3.org/1999/xlink">
 <g transform="translate(-127.15 -340.95)" fill="#0c0c0c" fill-rule="evenodd">
  <path d="m177.48 663.67c-2.0792 0.60969-4.1932 0.81011-6.2327 0.64842s-4.0145-0.68277-5.7222-1.6512-3.1575-2.3936-3.9024-4.4552-0.78202-4.7854 0.64018-8.1739c-3.3477 1.0394-6.5464 2.5008-9.6485 4.4086-2.4623 1.5049-4.842 3.3326-7.1004 5.5191s-4.3987 4.7309-6.3249 7.7083c-2.0495 3.2081-3.8662 6.9035-5.1431 11.142-1.168 3.9104-1.6694 8.255-1.2038 12.759s1.8983 9.1671 4.6472 13.55l1e-5 2e-5c2.8471 4.045 6.5559 7.3429 10.835 9.7384s9.1303 3.8885 14.1 4.3355c7.9147 0.85504 16.234-0.0265 24.233-2.6902 7.4959-2.5074 14.621-6.3418 21.161-11.051 6.1123-4.4007 11.861-9.4732 17.246-15.054s10.409-11.669 15.107-18.032c6.0427-8.1284 12.048-16.447 18.346-24.612 7.257-9.4044 14.882-18.717 23.162-27.49 8.1718-8.6373 16.86-16.782 26.459-23.436l2e-5 -2e-5c8.6965-5.9625 17.96-10.857 27.569-12.729l3e-5 -1e-5c9.8387-1.9786 19.906-2.906 29.762-2.5321s19.496 2.0505 28.515 5.2221c8.5158 2.9227 16.504 7.1762 23.745 12.357s13.735 11.287 19.315 17.936c6.6395 7.8894 12.052 16.549 16.466 25.478s7.8294 18.127 10.472 27.179c3.6857 12.676 5.8248 25.101 7.0198 36.79s1.4479 22.64 1.2759 32.521l-7.4201-0.50807c1.5197-22.831-0.0652-45.79-5.938-67.44-5.1451-18.824-13.323-36.724-25.333-51.174-10.918-13.197-25.175-23.711-40.997-29.142l-2e-5 -1e-5c-17.365-6.195-37.091-6.324-56.018-2.503-8.817 1.6898-17.513 6.3714-25.916 12.134-9.162 6.3929-17.568 14.342-25.647 22.957-7.9717 8.5336-15.436 17.736-22.704 27.268l-1e-5 2e-5c-6.0706 7.9681-11.995 16.279-18.143 24.656-9.1052 12.541-19.923 24.614-33.286 34.387-6.6399 4.8558-14.163 9.0251-22.522 11.883l-3e-5 1e-5c-8.3507 2.8341-17.396 3.9699-26.516 3.0321l-4e-5 -1e-5c-10.65-0.79886-21.475-6.197-28.943-16.454-6.0262-9.814-7.1592-21.002-4.1214-30.857 1.4293-4.5736 3.4345-8.7844 5.8799-12.593 2.7097-4.22 5.3913-7.2248 7.8056-9.6054s4.5844-4.1295 6.6114-5.5801c1.6416-1.189 3.176-2.2003 4.7323-3.1328s3.1349-1.7857 4.8784-2.612 3.6523-1.6265 5.8737-2.4025 4.7566-1.5291 7.7452-2.1958c2.7046-0.60334 5.2817-0.68016 7.5901-0.32437s4.3492 1.142 6.0436 2.2566c3.3889 2.2291 5.3601 5.7366 5.8052 9.965 0.22257 2.1142-0.16434 3.8213-0.94019 5.2232s-1.9445 2.4998-3.342 3.4051c-2.7951 1.8104-6.5116 2.8747-9.9783 3.9723z"/>
  <path d="m300.73 528.66c-1.0522-0.297-2.037-0.60644-2.9942-0.83462s-1.8869-0.38272-2.8172-0.46433c-1.5893-0.15956-3.2306-0.27332-4.8775-0.19365s-3.2921 0.34544-4.8223 0.83562-2.9434 1.2059-4.1151 2.1111-2.0993 2.0012-2.6786 3.1557c-0.32991 0.65758-0.65677 1.5414-0.97512 2.5125s-0.62649 2.0299-0.96428 3.0146c-0.67557 1.9693-1.4819 3.6717-3.1042 3.4983-0.63824-0.0682-1.7961-0.82375-3.1798-2.1518s-2.9792-3.2364-4.4613-5.5344c-1.5317-2.352-2.9589-5.1136-4.0888-7.9674s-1.9613-5.7943-2.5157-8.4421c-0.14545-0.6947-0.30722-1.4946-0.46899-2.4028-0.39842-2.1896-0.80043-5.0186-0.84262-8.5156s0.27256-7.6702 1.5112-12.42c0.85442-3.177 2.1439-6.5227 4.0263-9.8797s4.3588-6.7267 7.5721-9.8603c3.0574-2.8808 6.5635-5.4748 10.454-7.6327s8.1654-3.8788 12.675-5.0206c5.0755-1.3092 10.413-2.1276 15.889-2.4256s11.09-0.0743 16.673 0.62203h1e-5c6.1543 0.7499 12.415 2.1368 18.649 4.2086s12.441 4.8295 18.46 8.2726c4.6744 2.6741 8.8287 5.5083 12.553 8.3838h1e-5c5.2152 4.0197 9.641 8.0362 13.531 11.963s7.243 7.7662 10.244 11.523c6.0027 7.5136 10.633 14.675 14.835 22.034 3.8989 6.8305 7.4938 13.843 11.154 21.785s7.3909 16.816 11.246 27.485 7.8374 23.143 11.631 38.33c1.8968 7.5934 3.7401 15.865 5.4579 24.91s3.3093 18.864 4.6912 29.513l11.339-1.4959c-6.294-49.911-20.613-100.67-49.403-144.59-11.009-16.797-24.828-32.571-41.992-45.219l-1e-5 -1e-5c-14.782-10.924-32.48-18.771-51.844-21.431-10.557-1.5017-22.197-1.5614-34.289 1.066l-2e-5 1e-5c-8.948 1.8985-18.022 6.1138-26.131 13.001-6.7407 6.0004-11.733 13.578-14.578 22.082-0.69504 2.1476-1.2566 4.3072-1.688 6.4686-0.67751 3.4004-0.99994 6.5883-1.0843 9.5699s0.0701 5.7575 0.38516 8.349v1e-5c0.53935 4.6865 1.5324 8.7998 2.7741 12.517s2.7371 7.041 4.4546 10.134c1.8672 3.4217 4.0572 6.5678 6.694 9.5633s5.7212 5.848 9.5462 8.5296c2.4471 1.6915 5.1673 3.236 8.2282 4.5514 2.4637 1.0588 5.1687 1.8204 7.962 2.2218s5.6733 0.44239 8.4728 0.12742c3.8916-0.54145 7.398-1.7106 10.304-3.2596s5.2166-3.469 6.8889-5.4645 2.7123-4.0604 3.1771-5.9703 0.35877-3.6635-0.24218-5.1666c-0.68276-1.7078-1.6598-3.5155-2.8874-5.2376s-2.7046-3.3602-4.312-4.7935-3.3438-2.6579-5.0286-3.6157c-0.84243-0.47893-1.6709-0.89189-2.4621-1.2533s-1.5443-0.66915-2.2453-0.97968l-0.38663-0.11483z"/>
  <path d="m397.42 501.14c-24.989-28.027-49.659-57.404-65.323-91.662-3.0043-6.5646-5.6796-13.382-7.0164-20.527-0.29924-1.5986-0.52878-3.2267-0.58595-4.8752v-1e-5c-0.0138-0.39674-0.0169-0.79973 2e-3 -1.2074v-1e-5c5e-3 -0.10501 0.0118-0.21267 0.0215-0.32276l0.42912-0.0299 0.14912-0.0102h3.1e-4l1e-3 1.4e-4 0.55365 0.0805 1.5965 0.23099c-3e-3 0.0397-5e-3 0.0899-6e-3 0.15042-0.0119 0.30636-5e-3 0.63462 0.0102 0.98356 0.0621 1.4514 0.29307 2.9374 0.58996 4.4524h1e-5c1.3313 6.7809 4.008 13.334 7.0244 19.771v1e-5c15.777 33.591 40.551 62.33 65.764 90.04z"/>
  <path d="m350.65 340.95s-0.58876 0.12799-1.6345 0.43397-2.5492 0.7969-4.3379 1.5996-3.8623 1.9222-6.0015 3.4709-4.3414 3.5299-6.3653 5.9797c-2.1327 2.7059-3.9494 5.7806-5.2997 9.0027s-2.2343 6.5848-2.6688 9.8153c-0.66448 4.6184-0.55277 8.9725-0.12007 12.476s1.1546 6.161 1.5655 7.5662l0.0835 0.27498c0.62504 2.058 1.8082 4.1254 3.389 5.862s3.5522 3.1353 5.6198 3.9653 4.2183 1.0891 6.1804 0.73029 3.725-1.3317 5.2299-2.7973c1.5218-1.4822 2.4741-3.0525 3.127-4.5068s1.0046-2.8033 1.1527-4.0256c0.29627-2.4447-0.23275-4.4231-1.6565-6.116-0.25885-0.30777-0.59867-0.61635-1.0048-0.94007-1.3778-1.1385-3.538-2.4849-5.7212-4.3709-1.0916-0.94302-2.1848-2.0129-3.1782-3.1904s-1.8859-2.4625-2.5916-3.7904c-0.78049-1.4691-1.3304-2.9986-1.563-4.434-0.34522-2.1294-0.39178-4.3113-0.14561-6.445s0.78463-4.2186 1.5602-6.1758v-1e-5c1.1336-2.7261 2.7021-5.0802 4.3554-6.9848s3.3887-3.3652 4.9172-4.4489 2.8497-1.7977 3.7567-2.2574 1.4004-0.67247 1.3514-0.69342z"/>
  <path d="m470.17 505.23s-0.7451-0.072-2.1231-0.11605-3.3961-0.0564-5.9429 0.19115-5.626 0.75986-9.0419 1.8343-7.1664 2.719-10.962 5.2049c-3.6087 2.6863-6.7533 6.0306-9.1819 9.7669s-4.1383 7.8545-5.0812 11.977c-1.3069 5.7276-1.5664 11.084-1.3608 15.522s0.85196 7.9648 1.3638 10.3c0.15688 0.76761 0.29996 1.414 0.41722 1.9273 0.58706 2.5702 1.7472 5.1987 3.3301 7.5312s3.5846 4.3656 5.7759 5.8493 4.5662 2.4191 6.896 2.6783 4.6088-0.15516 6.7003-1.2781 3.5274-2.6246 4.4921-4.2668 1.4592-3.43 1.6205-5.2288-0.011-3.6108-0.43157-5.3531-1.0897-3.4171-1.9706-4.961c-0.54905-0.96218-1.3603-1.9689-2.3334-3.0643-1.8291-2.1245-4.3462-4.5142-6.6357-7.3742-1.1448-1.43-2.2285-2.975-3.1404-4.6151s-1.6508-3.3764-2.1359-5.1352c-0.4432-1.5978-0.65271-3.2276-0.60352-4.7544 0.086-2.6757 0.63013-5.3696 1.6149-7.9065s2.4093-4.9158 4.1858-7.0218c2.7441-3.0686 5.9186-5.3304 8.9282-6.9663s5.8579-2.6545 8.2218-3.3148 4.2519-0.96859 5.5207-1.1487 1.9274-0.2367 1.8776-0.27699z"/>
  <path d="m370.37 545.96s0.74877-0.30664 2.1078-0.82524 3.3308-1.2482 5.8002-2.0495c4.9388-1.6026 11.904-3.4716 19.794-4.3318 3.9648-0.44663 8.193-0.54924 12.421-0.19868s8.4503 1.1589 12.39 2.3469c4.8361 1.5253 8.9717 3.6464 12.158 5.6806s5.4393 3.9604 6.7055 5.0954c0.53759 0.48182 1.06 1.0028 1.5611 1.5581 1.8707 2.1235 3.3919 4.6716 4.37 7.3091s1.4161 5.3585 1.3009 7.8611-0.77586 4.7838-1.9011 6.6384-2.7092 3.2813-4.6862 4.1984c-2.106 0.97687-4.1275 1.2058-5.9818 1.0048s-3.5452-0.83433-5.0387-1.686-2.7892-1.921-3.8869-3.0843-2-2.42-2.7276-3.7469c-0.12557-0.229-0.2444-0.47428-0.3591-0.73483-0.67115-1.652-1.2256-4.0305-2.2438-6.7498s-2.52-5.7637-4.6282-8.4563c-2.3012-2.9448-5.2949-5.4232-8.2405-6.8256-3.5144-1.6735-7.2457-2.8042-10.834-3.496h-1e-5c-3.9943-0.7802-7.8303-1.0797-11.271-1.1203s-6.4892 0.17545-8.997 0.44949-4.4783 0.60529-5.8118 0.84131-2.0333 0.37651-2.0002 0.32169z"/>
  <path d="m328.11 587.67s-0.79452 0.347-2.2079 0.99771-3.4479 1.6068-5.9165 2.8792-5.3715 2.864-8.4887 4.8094-6.4463 4.2492-9.7494 6.9116c-2.9674 2.3586-6.0712 5.3995-8.8922 9.1921-2.2838 2.7694-4.1819 6.9558-5.158 12.247-0.70389 5.4359 0.71666 10.653 3.6639 15.104 2.1662 2.745 4.2859 4.7526 6.2184 6.2107s3.6781 2.3679 5.1752 2.9214c2.8848 1.2385 5.1094 1.9661 6.4764 2.3944 2.8476 0.89238 5.9795 1.1885 8.9103 0.86543s5.6596-1.2556 7.9385-2.6384 4.1204-3.204 5.4182-5.2976 2.0608-4.4574 2.1425-7.0341-0.50077-4.7562-1.5185-6.571-2.4682-3.2604-4.0707-4.3438-3.3463-1.8018-5.0166-2.2025-3.2636-0.48823-4.7514-0.33442c-1.5451 0.15976-3.3865 0.95192-5.6444 1.63-0.77866 0.2553-1.5664 0.70846-2.3444 1.1569s-1.5472 0.88762-2.2824 1.0739c-1.1368 0.686-2.802 0.14015-3.8475-1.155-0.6939-0.92878-1.0799-2.1446-1.2334-3.4211s-0.0755-2.6105 0.15205-3.8273c0.0897-0.49047 0.20288-0.96737 0.33688-1.4267 0.88681-3.0406 2.323-5.9118 3.8651-8.4484 2.2491-3.7249 4.8142-6.9639 7.298-9.696s4.8869-4.9616 6.9326-6.7244 3.7375-3.0621 4.8902-3.934 1.7701-1.3186 1.7037-1.3381z"/>
  <path d="m519.66 657.8c-1.4075-0.82665-2.5036-1.5964-3.3502-2.3762v-1e-5c-1.2656-1.1234-1.9393-2.2655-2.2546-3.4482s-0.26723-2.4012 6e-3 -3.5642 0.77913-2.2654 1.3764-3.1783 1.2871-1.6338 1.8711-2.0527c0.59309-0.42541 1.5733-0.9241 2.4091-1.4732s1.5261-1.1576 1.4513-1.8786c-0.14819-1.4276-1.5554-2.8383-3.531-4.0253s-4.5054-2.1132-6.7595-2.8402l-0.10636-0.0341c-1.3789-0.44373-2.5674-0.7024-3.7272-0.86785s-2.2934-0.23779-3.5927-0.22084-2.767 0.11785-4.5891 0.42548-4.007 0.80816-6.6605 1.8907c-2.3853 1.0692-5.0176 2.5864-7.701 4.8658s-5.4278 5.3509-7.7354 9.3492c-1.3361 2.2588-2.5764 4.8075-3.6219 7.671s-1.8962 6.0439-2.4314 9.5186c-0.44102 2.8858-0.70754 5.9418-0.80268 9.1593s-0.0171 6.597 0.17785 10.112c0.36163 6.8154 1.0191 14.346 1.8041 22.677 0.39249 4.165 0.81229 8.5299 1.1974 13.106s0.73647 9.3628 0.94954 14.373l-6.7127 0.28573c-0.69519-16.064-3.0056-32.719-3.7652-50.171-0.31829-6.4479-0.23837-13.381 0.96408-20.621 1.1145-6.6222 3.4846-13.211 7.2588-19.269h1e-5c3.9145-6.5723 10.173-12.443 18.626-15.894 4.2692-1.4845 8.5843-2.1278 12.759-2.0391 3.4671 0.0761 6.3242 0.60145 8.767 1.2694 2.0541 0.54855 3.8167 1.1457 5.4166 1.7682s3.0367 1.2719 4.41 1.9731c2.7466 1.4023 5.2708 2.995 8.036 5.285l0.89694 0.74184c1.3408 1.1348 2.4358 2.5428 3.2561 4.0667s1.3658 3.1624 1.6548 4.7691c0.57783 3.2136 0.10749 6.2634-0.84439 8.3367-0.78752 1.7152-1.875 2.8685-3.0731 3.6112s-2.5103 1.0787-3.8494 1.1364-2.708-0.1625-4.0764-0.5851-2.738-1.0488-4.1037-1.8509z"/>
  <path d="m467.1 719.38c-4.8531-8.1678-14.135-11.788-22.213-16.032-16.096-8.4591-28.776-23.19-35.869-40.018-1.015-3.9251-2.5121-7.9741-1.7003-12.081 15.999 14.396 38.737 15.38 53.724 29.971 7.9678 7.7574 9.9423 20.091 9.2401 31.101-0.0981 1.5382 0.64039 3.1329 1.8132 4.1952"/>
  <path d="m284.37 460.29s-0.54166 0.67752-1.5365 1.8731c-0.99607 1.1963-2.4478 2.912-4.3177 4.9656s-4.1613 4.4423-6.8504 6.9465c-2.6884 2.5055-5.7783 5.1214-9.2072 7.6192-3.049 2.2521-6.7921 4.4592-11.187 6.198-3.2684 1.4857-7.8038 2.2308-13.167 1.7984-5.4322-0.73274-10.101-3.4606-13.633-7.463-2.0879-2.8049-3.475-5.3736-4.3809-7.6181-0.90563-2.2455-1.3309-4.167-1.4766-5.7575-0.44606-3.1066-0.57088-5.4444-0.62896-6.8756-0.12129-2.982 0.4055-6.0826 1.479-8.829s2.6836-5.1392 4.6113-6.9805 4.1645-3.1459 6.5239-3.8552 4.8394-0.83204 7.3492-0.24157 4.4624 1.7196 5.9506 3.1743 2.5067 3.2304 3.136 5.0597 0.87064 3.6993 0.8239 5.4161-0.37692 3.2787-0.91229 4.6756c-0.55501 1.4506-1.7992 3.0223-3.0406 5.0266-0.44866 0.68598-1.0909 1.3292-1.7266 1.9638-0.63477 0.63486-1.2585 1.2634-1.6291 1.9248-0.95789 0.91969-0.86426 2.6691 0.11541 4.0159 0.71604 0.91034 1.79 1.5991 2.9831 2.0796s2.5009 0.75064 3.735 0.84768c0.49655 0.0404 0.98654 0.0553 1.4656 0.0454 3.1661-0.0666 6.3116-0.70722 9.1621-1.537 4.1815-1.2038 7.9757-2.839 11.259-4.5278s6.0614-3.4297 8.2946-4.9476 3.9279-2.813 5.0695-3.6998 1.7336-1.3664 1.7348-1.2978z"/>
 </g>
</svg>
